<?xml version="1.0" encoding="UTF-8" standalone="no"?>
<!-- Created with Inkscape (http://www.inkscape.org/) -->

<svg
        version="1.1"
        id="svg9"
        width="1024"
        height="256"
        viewBox="0 0 1024 256.00001"
        xmlns="http://www.w3.org/2000/svg"
        xmlns:svg="http://www.w3.org/2000/svg">
    <defs
            id="defs13"/>
    <g
            id="layer1"
            style="display:inline"
            transform="translate(-42.174823,-148.22711)">
        <path
                style="display:inline;fill:#7c4ca0;stroke-width:2.52"
                d="M 67.174838,276.78438 V 163.22711 l 63.630002,0.78727 c 63.587,0.78671 63.6387,0.79184 76.54084,7.59796 16.31386,8.6059 32.739,27.11789 37.35431,42.10028 3.52056,11.42866 3.56592,11.1945 3.73933,-19.301 l 0.17553,-30.87 h 34.02 34.02 v 80.64 80.64 h 44.01747 44.01747 l 0.71253,27.40179 0.71253,27.40179 31.24794,-82.21179 c 17.18637,-45.21648 35.7318,-93.83529 41.2121,-108.04179 l 9.96415,-25.83 h 30.78385 30.78384 l 41.40407,109.55297 41.40407,109.55299 0.65678,-109.55299 0.65677,-109.55297 h 34.69316 34.69304 l 31.43038,53.45061 31.43039,53.45059 0.6804,-53.45059 0.6804,-53.45061 34.59984,0.0573 c 33.90912,0.0563 34.4313,0.14049 26.15602,4.21775 -24.72907,12.18411 -29.50456,49.38079 -8.90844,69.38848 4.8399,4.70164 8.4902,10.77418 8.50547,14.14972 0.0236,5.33325 -13.39922,89.75292 -16.33928,102.75768 -0.66543,2.94305 -4.62617,6.76612 -8.80181,8.49572 -4.17564,1.7296 -7.59835,4.42465 -7.60615,5.989 -0.007,1.56435 -1.19502,7.09678 -2.63844,12.29428 -2.43022,8.75095 -3.31466,9.44882 -11.9559,9.43384 l -9.33156,-0.0158 -35.28,-57.02054 -35.28,-57.02053 -0.67725,57.0771 -0.67725,57.0771 -68.50845,-0.67039 -68.50847,-0.67143 -4.00614,-13.86 -4.00612,-13.86 -35.37884,-0.69662 -35.37881,-0.69662 -4.59815,15.18663 -4.59813,15.18662 h -113.00249 -113.001 l -0.16861,-66.15 c -0.14569,-57.13286 -0.60314,-64.77595 -3.35643,-56.06997 -5.0485,15.9631 -10.62489,25.08612 -20.78822,34.00964 -16.25586,14.27284 -29.03917,18.41405 -60.73676,19.67594 l -28.35,1.12862 v 33.70289 33.70288 h -34.02 -34.019997 z m 468.692572,27.24724 c -0.0158,-0.3465 -3.77785,-12.14685 -8.36178,-26.22302 l -8.33439,-25.59303 -8.01819,24.46239 c -4.41003,13.45429 -8.01821,25.25465 -8.01821,26.223 0,0.96838 7.371,1.76066 16.38,1.76066 9.009,0 16.36766,-0.2835 16.35257,-0.63 z M 166.70609,258.20769 c 9.26365,-3.8706 13.03879,-11.98932 10.42235,-22.41404 -1.96004,-7.80945 -11.44307,-11.77203 -28.17219,-11.77203 h -13.74141 v 18.9 18.9 h 11.42093 c 6.28151,0 15.31316,-1.62626 20.07032,-3.61393 z m 739.70467,123.94393 c -1.68053,-4.5045 -4.04752,-10.71022 -5.26003,-13.79047 -1.21244,-3.08026 -5.01126,-6.30493 -8.44177,-7.16595 -7.20223,-1.80765 -6.09809,2.4796 -16.68972,-64.80302 l -7.84736,-49.84942 7.78176,-7.26926 c 21.54111,-20.12235 19.28674,-53.83629 -4.67987,-69.98736 l -8.5243,-5.74452 h 56.61535 c 64.51081,0 75.24298,1.92786 92.37698,16.59401 14.7017,12.58409 20.593,25.06351 20.593,43.62155 0,17.82736 -2.9646,26.73308 -12.0797,36.28708 l -6.719,7.04262 8.454,6.61626 c 12.8295,10.04055 20.3819,28.54914 20.3448,49.85848 -0.039,22.33524 -5.4263,34.60572 -21.3465,48.61922 -17.1367,15.08433 -29.7546,18.16078 -74.48523,18.16078 h -37.03691 z m 54.75006,-49.93356 c 4.78982,-1.66971 8.88064,-5.53851 10.82821,-10.2405 2.73105,-6.59327 2.49141,-8.41252 -1.87913,-14.26643 -5.85168,-7.83769 -12.23484,-10.01369 -30.38506,-10.3583 l -13.23,-0.25122 v 18.9 18.9 h 13.48396 c 7.41613,0 16.94811,-1.2076 21.18202,-2.68356 z m -0.88956,-92.97287 c 9.51678,-9.51676 -0.2961,-16.95831 -23.06642,-17.49236 l -10.71,-0.25121 v 12.95256 12.95256 l 14.28139,-1.47398 c 9.63404,-0.99432 15.97806,-3.17057 19.49503,-6.68757 z"
                id="path3711-8">
            <animate
                    attributeName="fill"
                    dur="10s"
                    repeatCount="indefinite"
                    values="#7c4ca0;#043f81;#7c4ca0"
            />
        </path>
        <path
                style="display:inline;fill:#043f81;stroke-width:2.52"
                d="M 67.174838,276.78438 V 163.22711 l 63.630002,0.78727 c 63.587,0.78671 63.6387,0.79184 76.54084,7.59796 16.31386,8.6059 32.739,27.11789 37.35431,42.10028 3.52056,11.42866 3.56592,11.1945 3.73933,-19.301 l 0.17553,-30.87 h 34.02 34.02 v 80.64 80.64 h 44.01747 44.01747 l 0.71253,27.40179 0.71253,27.40179 31.24796,-82.21179 c 17.18637,-45.21648 35.7318,-93.83529 41.21209,-108.04179 l 9.96416,-25.83 h 30.78385 30.78383 l 41.40406,109.55297 41.40405,109.55299 0.65646,-109.55299 0.65646,-109.55297 h 34.69315 34.69307 l 31.43038,53.45061 31.43039,53.45059 0.6804,-53.45059 0.6804,-53.45061 h 33.29487 33.29487 l -9.37771,6.37229 c -22.84135,15.52113 -25.283,48.16896 -5.11103,68.34098 l 9.15729,9.15731 -8.19702,51.93471 c -4.50835,28.5641 -8.71274,53.79727 -9.34305,56.07371 -0.63,2.27642 -4.42142,5.49568 -8.42459,7.15385 -5.8405,2.41919 -7.86524,5.46018 -10.24758,15.39101 -2.88446,12.02381 -3.23089,12.37569 -12.16767,12.35999 l -9.19863,-0.0157 -35.28,-57.02055 -35.28,-57.02052 -0.67725,57.0771 -0.67725,57.07709 -68.50843,-0.67039 -68.50847,-0.67142 -4.00614,-13.86 -4.00613,-13.86 -35.37882,-0.69663 -35.37882,-0.69662 -4.59815,15.18663 -4.59814,15.18663 h -113.00187 -113.001 l -0.16861,-66.15 c -0.14569,-57.13286 -0.60314,-64.77595 -3.35643,-56.06998 -5.0485,15.96311 -10.62489,25.08613 -20.78822,34.00964 -16.25586,14.27284 -29.03917,18.41405 -60.73676,19.67595 l -28.35,1.12862 v 33.70289 33.70288 h -34.02 -34.019997 z m 468.692572,27.24724 c -0.0158,-0.3465 -3.77785,-12.14685 -8.36178,-26.22302 l -8.33439,-25.59303 -8.01819,24.46239 c -4.41003,13.45429 -8.01821,25.25465 -8.01821,26.223 0,0.96838 7.371,1.76066 16.38,1.76066 9.009,0 16.36766,-0.2835 16.35257,-0.63 z M 166.70609,258.20769 c 9.26365,-3.8706 13.03879,-11.98932 10.42235,-22.41404 -1.96004,-7.80945 -11.44307,-11.77203 -28.17219,-11.77203 h -13.74141 v 18.9 18.9 h 11.42093 c 6.28151,0 15.31316,-1.62626 20.07032,-3.61393 z"
                id="path3681-9">
        </path>
    </g>
</svg>
